# xmcd
#
# Track frame offsets: 
#        182
#        13367
#        30422
#        44590
#        57352
#        69310
#        80690
#        92390
#        104897
#        115490
#        131762
#        178717
#        191145
#        200860
#        213600
#        227222
#        239247
#        251180
#        271915
#        295390
#        317520
#        331052
#
# Disc length: 4583 seconds
#
# Revision: 4
# Processed by: cddbd v1.5.2PL0 Copyright (c) Steve Scherf et al.
# Submitted via: ExactAudioCopy v0.95b4
#
DISCID=6111e516
DTITLE=Various Artist - Blues Masters
DYEAR=1900
DGENRE=
TTITLE0=Ain't Nobody's Business
TTITLE1=T-Bone Blues
TTITLE2=Laundromat Blues
TTITLE3=Rollin' and Tumblin' Part 1
TTITLE4=All Your Love (I Miss Loving)
TTITLE5=Evening Sun
TTITLE6=Little By Little
TTITLE7=Short-Haired Woman
TTITLE8=The Freeze
TTITLE9=The Stumble
TTITLE10=Flood Down in Texas
TTITLE11=Sugar Coated Love
TTITLE12=Steady
TTITLE13=I Got Love If You Want It
TTITLE14=Shake, Rattle, And Roll
TTITLE15=Hoy Hoy
TTITLE16=Hello Little Boy
TTITLE17=I'm A Woman
TTITLE18=Master Charge
TTITLE19=Mojo Boogie (aka The Mojo)
TTITLE20=Feelin' Good
TTITLE21=Bear Cat
EXTD=
EXTT0=Jimmy Witherspoon
EXTT1=T-Bone Walker
EXTT2=Albert King
EXTT3=Baby Face Leroy Trio
EXTT4=Otis Rush
EXTT5=Johnny Shines
EXTT6=Junior Wells
EXTT7=Lightnin' Hopkins
EXTT8=Albert Collins And His Rhythm Rockes
EXTT9=Freddy King
EXTT10=Stevie Ray Vaughn
EXTT11=Lazy Lester
EXTT12=Jerry McCain
EXTT13=Slim Harpo
EXTT14=Joe Turner
EXTT15=Little Johnnie Jones
EXTT16=Ruth Brown
EXTT17=Koko Taylor
EXTT18=Albert Collins
EXTT19=Johnny Winter
EXTT20=Little Junior's Blue Flames
EXTT21=Rufus 'Hound Dog' Thomas, Jr.
PLAYORDER=
